<mxfile host="app.diagrams.net" modified="2023-10-19T17:32:39.629Z" agent="Mozilla/5.0 (Windows NT 10.0; Win64; x64) AppleWebKit/537.36 (KHTML, like Gecko) Chrome/118.0.0.0 Safari/537.36" etag="KTPHs6Ldrr51X4zsLYzK" version="22.0.5" type="google">
  <diagram name="Page-1" id="2YBvvXClWsGukQMizWep">
    <mxGraphModel grid="0" page="1" gridSize="10" guides="1" tooltips="1" connect="1" arrows="1" fold="1" pageScale="1" pageWidth="850" pageHeight="1100" math="0" shadow="0">
      <root>
        <mxCell id="0" />
        <mxCell id="1" parent="0" />
        <mxCell id="UQ7txg1qopWhp1Ey1IJB-114" value="" style="rounded=0;whiteSpace=wrap;html=1;" vertex="1" parent="1">
          <mxGeometry x="29" y="44.5" width="772" height="629" as="geometry" />
        </mxCell>
        <mxCell id="aM9ryv3xv72pqoxQDRHE-1" value="User" style="shape=umlLifeline;perimeter=lifelinePerimeter;whiteSpace=wrap;html=1;container=0;dropTarget=0;collapsible=0;recursiveResize=0;outlineConnect=0;portConstraint=eastwest;newEdgeStyle={&quot;edgeStyle&quot;:&quot;elbowEdgeStyle&quot;,&quot;elbow&quot;:&quot;vertical&quot;,&quot;curved&quot;:0,&quot;rounded&quot;:0};" vertex="1" parent="1">
          <mxGeometry x="59" y="113.5" width="100" height="560" as="geometry" />
        </mxCell>
        <mxCell id="aM9ryv3xv72pqoxQDRHE-2" value="" style="html=1;points=[];perimeter=orthogonalPerimeter;outlineConnect=0;targetShapes=umlLifeline;portConstraint=eastwest;newEdgeStyle={&quot;edgeStyle&quot;:&quot;elbowEdgeStyle&quot;,&quot;elbow&quot;:&quot;vertical&quot;,&quot;curved&quot;:0,&quot;rounded&quot;:0};" vertex="1" parent="aM9ryv3xv72pqoxQDRHE-1">
          <mxGeometry x="45" y="50" width="10" height="470" as="geometry" />
        </mxCell>
        <mxCell id="aM9ryv3xv72pqoxQDRHE-4" value="" style="html=1;points=[];perimeter=orthogonalPerimeter;outlineConnect=0;targetShapes=umlLifeline;portConstraint=eastwest;newEdgeStyle={&quot;edgeStyle&quot;:&quot;elbowEdgeStyle&quot;,&quot;elbow&quot;:&quot;vertical&quot;,&quot;curved&quot;:0,&quot;rounded&quot;:0};" vertex="1" parent="aM9ryv3xv72pqoxQDRHE-1">
          <mxGeometry x="50" y="70" width="10" height="170" as="geometry" />
        </mxCell>
        <mxCell id="aM9ryv3xv72pqoxQDRHE-5" value="Software" style="shape=umlLifeline;perimeter=lifelinePerimeter;whiteSpace=wrap;html=1;container=0;dropTarget=0;collapsible=0;recursiveResize=0;outlineConnect=0;portConstraint=eastwest;newEdgeStyle={&quot;edgeStyle&quot;:&quot;elbowEdgeStyle&quot;,&quot;elbow&quot;:&quot;vertical&quot;,&quot;curved&quot;:0,&quot;rounded&quot;:0};" vertex="1" parent="1">
          <mxGeometry x="179" y="113.5" width="100" height="560" as="geometry" />
        </mxCell>
        <mxCell id="aM9ryv3xv72pqoxQDRHE-6" value="" style="html=1;points=[];perimeter=orthogonalPerimeter;outlineConnect=0;targetShapes=umlLifeline;portConstraint=eastwest;newEdgeStyle={&quot;edgeStyle&quot;:&quot;elbowEdgeStyle&quot;,&quot;elbow&quot;:&quot;vertical&quot;,&quot;curved&quot;:0,&quot;rounded&quot;:0};" vertex="1" parent="aM9ryv3xv72pqoxQDRHE-5">
          <mxGeometry x="45" y="70" width="10" height="430" as="geometry" />
        </mxCell>
        <mxCell id="UQ7txg1qopWhp1Ey1IJB-25" style="edgeStyle=elbowEdgeStyle;rounded=0;orthogonalLoop=1;jettySize=auto;html=1;elbow=vertical;curved=0;" edge="1" parent="aM9ryv3xv72pqoxQDRHE-5" source="UQ7txg1qopWhp1Ey1IJB-14" target="aM9ryv3xv72pqoxQDRHE-5">
          <mxGeometry relative="1" as="geometry" />
        </mxCell>
        <mxCell id="UQ7txg1qopWhp1Ey1IJB-14" value="" style="html=1;points=[];perimeter=orthogonalPerimeter;outlineConnect=0;targetShapes=umlLifeline;portConstraint=eastwest;newEdgeStyle={&quot;edgeStyle&quot;:&quot;elbowEdgeStyle&quot;,&quot;elbow&quot;:&quot;vertical&quot;,&quot;curved&quot;:0,&quot;rounded&quot;:0};" vertex="1" parent="aM9ryv3xv72pqoxQDRHE-5">
          <mxGeometry x="50" y="110" width="10" height="130" as="geometry" />
        </mxCell>
        <mxCell id="aM9ryv3xv72pqoxQDRHE-7" value="Request Access" style="html=1;verticalAlign=bottom;endArrow=block;edgeStyle=elbowEdgeStyle;elbow=vertical;curved=0;rounded=0;" edge="1" parent="1" target="aM9ryv3xv72pqoxQDRHE-6">
          <mxGeometry relative="1" as="geometry">
            <mxPoint x="119" y="193.5" as="sourcePoint" />
            <Array as="points">
              <mxPoint x="159" y="193.5" />
            </Array>
          </mxGeometry>
        </mxCell>
        <mxCell id="aM9ryv3xv72pqoxQDRHE-9" value="Request login&lt;br&gt;&amp;nbsp;Credentials" style="html=1;verticalAlign=bottom;endArrow=block;edgeStyle=elbowEdgeStyle;elbow=vertical;curved=0;rounded=0;dashed=1;" edge="1" parent="1">
          <mxGeometry relative="1" as="geometry">
            <mxPoint x="229" y="238.5" as="sourcePoint" />
            <Array as="points">
              <mxPoint x="169" y="238.5" />
            </Array>
            <mxPoint x="119" y="238.5" as="targetPoint" />
          </mxGeometry>
        </mxCell>
        <mxCell id="aM9ryv3xv72pqoxQDRHE-10" value="Enter Login in &lt;br&gt;Credentials" style="html=1;verticalAlign=bottom;endArrow=open;endSize=8;edgeStyle=elbowEdgeStyle;elbow=vertical;curved=0;rounded=0;" edge="1" parent="1" source="aM9ryv3xv72pqoxQDRHE-4">
          <mxGeometry relative="1" as="geometry">
            <mxPoint x="229" y="280.5" as="targetPoint" />
            <Array as="points">
              <mxPoint x="159" y="280.5" />
            </Array>
            <mxPoint x="129" y="280.5" as="sourcePoint" />
          </mxGeometry>
        </mxCell>
        <mxCell id="UQ7txg1qopWhp1Ey1IJB-1" value="DataBase" style="shape=umlLifeline;perimeter=lifelinePerimeter;whiteSpace=wrap;html=1;container=0;dropTarget=0;collapsible=0;recursiveResize=0;outlineConnect=0;portConstraint=eastwest;newEdgeStyle={&quot;edgeStyle&quot;:&quot;elbowEdgeStyle&quot;,&quot;elbow&quot;:&quot;vertical&quot;,&quot;curved&quot;:0,&quot;rounded&quot;:0};" vertex="1" parent="1">
          <mxGeometry x="689" y="113.5" width="100" height="560" as="geometry" />
        </mxCell>
        <mxCell id="UQ7txg1qopWhp1Ey1IJB-2" value="" style="html=1;points=[];perimeter=orthogonalPerimeter;outlineConnect=0;targetShapes=umlLifeline;portConstraint=eastwest;newEdgeStyle={&quot;edgeStyle&quot;:&quot;elbowEdgeStyle&quot;,&quot;elbow&quot;:&quot;vertical&quot;,&quot;curved&quot;:0,&quot;rounded&quot;:0};" vertex="1" parent="UQ7txg1qopWhp1Ey1IJB-1">
          <mxGeometry x="45" y="70" width="10" height="420" as="geometry" />
        </mxCell>
        <mxCell id="UQ7txg1qopWhp1Ey1IJB-3" value="Mission Status" style="shape=umlLifeline;perimeter=lifelinePerimeter;whiteSpace=wrap;html=1;container=0;dropTarget=0;collapsible=0;recursiveResize=0;outlineConnect=0;portConstraint=eastwest;newEdgeStyle={&quot;edgeStyle&quot;:&quot;elbowEdgeStyle&quot;,&quot;elbow&quot;:&quot;vertical&quot;,&quot;curved&quot;:0,&quot;rounded&quot;:0};" vertex="1" parent="1">
          <mxGeometry x="329" y="113.5" width="100" height="560" as="geometry" />
        </mxCell>
        <mxCell id="UQ7txg1qopWhp1Ey1IJB-4" value="" style="html=1;points=[];perimeter=orthogonalPerimeter;outlineConnect=0;targetShapes=umlLifeline;portConstraint=eastwest;newEdgeStyle={&quot;edgeStyle&quot;:&quot;elbowEdgeStyle&quot;,&quot;elbow&quot;:&quot;vertical&quot;,&quot;curved&quot;:0,&quot;rounded&quot;:0};" vertex="1" parent="UQ7txg1qopWhp1Ey1IJB-3">
          <mxGeometry x="45" y="240" width="10" height="260" as="geometry" />
        </mxCell>
        <mxCell id="UQ7txg1qopWhp1Ey1IJB-5" value="Hardware Status" style="shape=umlLifeline;perimeter=lifelinePerimeter;whiteSpace=wrap;html=1;container=0;dropTarget=0;collapsible=0;recursiveResize=0;outlineConnect=0;portConstraint=eastwest;newEdgeStyle={&quot;edgeStyle&quot;:&quot;elbowEdgeStyle&quot;,&quot;elbow&quot;:&quot;vertical&quot;,&quot;curved&quot;:0,&quot;rounded&quot;:0};" vertex="1" parent="1">
          <mxGeometry x="469" y="113.5" width="100" height="560" as="geometry" />
        </mxCell>
        <mxCell id="UQ7txg1qopWhp1Ey1IJB-6" value="" style="html=1;points=[];perimeter=orthogonalPerimeter;outlineConnect=0;targetShapes=umlLifeline;portConstraint=eastwest;newEdgeStyle={&quot;edgeStyle&quot;:&quot;elbowEdgeStyle&quot;,&quot;elbow&quot;:&quot;vertical&quot;,&quot;curved&quot;:0,&quot;rounded&quot;:0};" vertex="1" parent="UQ7txg1qopWhp1Ey1IJB-5">
          <mxGeometry x="45" y="250" width="10" height="90" as="geometry" />
        </mxCell>
        <mxCell id="UQ7txg1qopWhp1Ey1IJB-11" value="System Sensor" style="shape=umlLifeline;perimeter=lifelinePerimeter;whiteSpace=wrap;html=1;container=0;dropTarget=0;collapsible=0;recursiveResize=0;outlineConnect=0;portConstraint=eastwest;newEdgeStyle={&quot;edgeStyle&quot;:&quot;elbowEdgeStyle&quot;,&quot;elbow&quot;:&quot;vertical&quot;,&quot;curved&quot;:0,&quot;rounded&quot;:0};" vertex="1" parent="1">
          <mxGeometry x="579" y="113.5" width="100" height="560" as="geometry" />
        </mxCell>
        <mxCell id="UQ7txg1qopWhp1Ey1IJB-90" style="edgeStyle=elbowEdgeStyle;rounded=0;orthogonalLoop=1;jettySize=auto;html=1;elbow=vertical;curved=0;" edge="1" parent="UQ7txg1qopWhp1Ey1IJB-11" source="UQ7txg1qopWhp1Ey1IJB-12" target="UQ7txg1qopWhp1Ey1IJB-11">
          <mxGeometry relative="1" as="geometry" />
        </mxCell>
        <mxCell id="UQ7txg1qopWhp1Ey1IJB-12" value="" style="html=1;points=[];perimeter=orthogonalPerimeter;outlineConnect=0;targetShapes=umlLifeline;portConstraint=eastwest;newEdgeStyle={&quot;edgeStyle&quot;:&quot;elbowEdgeStyle&quot;,&quot;elbow&quot;:&quot;vertical&quot;,&quot;curved&quot;:0,&quot;rounded&quot;:0};" vertex="1" parent="UQ7txg1qopWhp1Ey1IJB-11">
          <mxGeometry x="45" y="340" width="10" height="150" as="geometry" />
        </mxCell>
        <mxCell id="UQ7txg1qopWhp1Ey1IJB-16" style="rounded=0;orthogonalLoop=1;jettySize=auto;html=1;elbow=horizontal;" edge="1" parent="1">
          <mxGeometry relative="1" as="geometry">
            <mxPoint x="239" y="285.5" as="sourcePoint" />
            <mxPoint x="744" y="285.5" as="targetPoint" />
          </mxGeometry>
        </mxCell>
        <mxCell id="UQ7txg1qopWhp1Ey1IJB-60" value="Verify User ID" style="edgeLabel;html=1;align=center;verticalAlign=middle;resizable=0;points=[];" connectable="0" vertex="1" parent="UQ7txg1qopWhp1Ey1IJB-16">
          <mxGeometry x="-0.7767" y="2" relative="1" as="geometry">
            <mxPoint y="-7" as="offset" />
          </mxGeometry>
        </mxCell>
        <mxCell id="UQ7txg1qopWhp1Ey1IJB-20" style="edgeStyle=elbowEdgeStyle;rounded=0;orthogonalLoop=1;jettySize=auto;html=1;elbow=vertical;curved=0;endArrow=open;endFill=0;" edge="1" parent="1">
          <mxGeometry relative="1" as="geometry">
            <mxPoint x="734" y="312.5" as="sourcePoint" />
            <mxPoint x="239" y="312.5" as="targetPoint" />
            <Array as="points">
              <mxPoint x="558.9" y="312.5" />
            </Array>
          </mxGeometry>
        </mxCell>
        <mxCell id="UQ7txg1qopWhp1Ey1IJB-59" value="Approve User ID" style="edgeLabel;html=1;align=center;verticalAlign=middle;resizable=0;points=[];" connectable="0" vertex="1" parent="UQ7txg1qopWhp1Ey1IJB-20">
          <mxGeometry x="0.786" y="1" relative="1" as="geometry">
            <mxPoint x="1" y="-10" as="offset" />
          </mxGeometry>
        </mxCell>
        <mxCell id="UQ7txg1qopWhp1Ey1IJB-26" style="edgeStyle=elbowEdgeStyle;rounded=0;orthogonalLoop=1;jettySize=auto;html=1;elbow=vertical;curved=0;dashed=1;endArrow=open;endFill=0;" edge="1" parent="1">
          <mxGeometry relative="1" as="geometry">
            <mxPoint x="229" y="328.5" as="sourcePoint" />
            <mxPoint x="119" y="328.5" as="targetPoint" />
            <Array as="points">
              <mxPoint x="169" y="328.5" />
            </Array>
          </mxGeometry>
        </mxCell>
        <mxCell id="UQ7txg1qopWhp1Ey1IJB-83" value="Grant Access" style="edgeLabel;html=1;align=center;verticalAlign=middle;resizable=0;points=[];" connectable="0" vertex="1" parent="UQ7txg1qopWhp1Ey1IJB-26">
          <mxGeometry x="0.1582" y="-2" relative="1" as="geometry">
            <mxPoint y="-6" as="offset" />
          </mxGeometry>
        </mxCell>
        <mxCell id="UQ7txg1qopWhp1Ey1IJB-29" style="edgeStyle=elbowEdgeStyle;rounded=0;orthogonalLoop=1;jettySize=auto;html=1;elbow=vertical;curved=0;" edge="1" parent="1">
          <mxGeometry relative="1" as="geometry">
            <mxPoint x="114" y="375.5" as="sourcePoint" />
            <mxPoint x="224" y="375.5" as="targetPoint" />
            <Array as="points">
              <mxPoint x="169" y="375.5" />
            </Array>
          </mxGeometry>
        </mxCell>
        <mxCell id="UQ7txg1qopWhp1Ey1IJB-65" value="Check Mission &lt;br&gt;Update" style="edgeLabel;html=1;align=center;verticalAlign=middle;resizable=0;points=[];" connectable="0" vertex="1" parent="UQ7txg1qopWhp1Ey1IJB-29">
          <mxGeometry x="-0.0651" relative="1" as="geometry">
            <mxPoint y="-15" as="offset" />
          </mxGeometry>
        </mxCell>
        <mxCell id="UQ7txg1qopWhp1Ey1IJB-32" style="edgeStyle=elbowEdgeStyle;rounded=0;orthogonalLoop=1;jettySize=auto;html=1;elbow=vertical;curved=0;" edge="1" parent="1">
          <mxGeometry relative="1" as="geometry">
            <mxPoint x="234" y="383.5" as="sourcePoint" />
            <mxPoint x="374" y="383.5" as="targetPoint" />
            <Array as="points">
              <mxPoint x="334" y="383.5" />
            </Array>
          </mxGeometry>
        </mxCell>
        <mxCell id="UQ7txg1qopWhp1Ey1IJB-58" value="Request Mission &lt;br&gt;Status" style="edgeLabel;html=1;align=center;verticalAlign=middle;resizable=0;points=[];" connectable="0" vertex="1" parent="UQ7txg1qopWhp1Ey1IJB-32">
          <mxGeometry x="-0.3333" y="1" relative="1" as="geometry">
            <mxPoint x="19" y="-14" as="offset" />
          </mxGeometry>
        </mxCell>
        <mxCell id="UQ7txg1qopWhp1Ey1IJB-42" style="edgeStyle=elbowEdgeStyle;rounded=0;orthogonalLoop=1;jettySize=auto;html=1;elbow=vertical;curved=0;" edge="1" parent="1" target="UQ7txg1qopWhp1Ey1IJB-6">
          <mxGeometry relative="1" as="geometry">
            <mxPoint x="384" y="478.5" as="sourcePoint" />
            <mxPoint x="509" y="403.5" as="targetPoint" />
            <Array as="points">
              <mxPoint x="379" y="398.5" />
            </Array>
          </mxGeometry>
        </mxCell>
        <mxCell id="UQ7txg1qopWhp1Ey1IJB-55" value="Request Hardware &lt;br&gt;Data" style="edgeLabel;html=1;align=center;verticalAlign=middle;resizable=0;points=[];" connectable="0" vertex="1" parent="UQ7txg1qopWhp1Ey1IJB-42">
          <mxGeometry x="-0.409" y="1" relative="1" as="geometry">
            <mxPoint x="67" y="-33" as="offset" />
          </mxGeometry>
        </mxCell>
        <mxCell id="UQ7txg1qopWhp1Ey1IJB-45" style="rounded=0;orthogonalLoop=1;jettySize=auto;html=1;elbow=vertical;" edge="1" parent="1" source="UQ7txg1qopWhp1Ey1IJB-6" target="UQ7txg1qopWhp1Ey1IJB-2">
          <mxGeometry relative="1" as="geometry">
            <mxPoint x="534.0000000000001" y="406.5" as="sourcePoint" />
            <mxPoint x="729" y="406.5" as="targetPoint" />
          </mxGeometry>
        </mxCell>
        <mxCell id="UQ7txg1qopWhp1Ey1IJB-64" value="Request Data" style="edgeLabel;html=1;align=center;verticalAlign=middle;resizable=0;points=[];" connectable="0" vertex="1" parent="UQ7txg1qopWhp1Ey1IJB-45">
          <mxGeometry x="-0.6887" relative="1" as="geometry">
            <mxPoint x="14" y="-9" as="offset" />
          </mxGeometry>
        </mxCell>
        <mxCell id="UQ7txg1qopWhp1Ey1IJB-47" style="edgeStyle=elbowEdgeStyle;rounded=0;orthogonalLoop=1;jettySize=auto;html=1;elbow=vertical;curved=0;endArrow=open;endFill=0;" edge="1" parent="1" target="UQ7txg1qopWhp1Ey1IJB-6">
          <mxGeometry relative="1" as="geometry">
            <mxPoint x="744" y="426.45348837209303" as="sourcePoint" />
            <mxPoint x="534" y="426.5" as="targetPoint" />
          </mxGeometry>
        </mxCell>
        <mxCell id="UQ7txg1qopWhp1Ey1IJB-50" value="Return&amp;nbsp; Data" style="edgeLabel;html=1;align=center;verticalAlign=middle;resizable=0;points=[];" connectable="0" vertex="1" parent="UQ7txg1qopWhp1Ey1IJB-47">
          <mxGeometry x="0.7432" y="-1" relative="1" as="geometry">
            <mxPoint x="25" y="-7" as="offset" />
          </mxGeometry>
        </mxCell>
        <mxCell id="UQ7txg1qopWhp1Ey1IJB-48" style="rounded=0;orthogonalLoop=1;jettySize=auto;html=1;elbow=horizontal;endArrow=open;endFill=0;" edge="1" parent="1" source="UQ7txg1qopWhp1Ey1IJB-6">
          <mxGeometry relative="1" as="geometry">
            <mxPoint x="524.0000000000001" y="435.5" as="sourcePoint" />
            <mxPoint x="384" y="435.5" as="targetPoint" />
          </mxGeometry>
        </mxCell>
        <mxCell id="UQ7txg1qopWhp1Ey1IJB-53" value="Return Hardware Data" style="edgeLabel;html=1;align=center;verticalAlign=middle;resizable=0;points=[];" connectable="0" vertex="1" parent="UQ7txg1qopWhp1Ey1IJB-48">
          <mxGeometry x="0.2658" y="-1" relative="1" as="geometry">
            <mxPoint x="19" y="-7" as="offset" />
          </mxGeometry>
        </mxCell>
        <mxCell id="UQ7txg1qopWhp1Ey1IJB-57" style="edgeStyle=elbowEdgeStyle;rounded=0;orthogonalLoop=1;jettySize=auto;html=1;elbow=horizontal;curved=0;endArrow=open;endFill=0;" edge="1" parent="1">
          <mxGeometry relative="1" as="geometry">
            <mxPoint x="374" y="444.5" as="sourcePoint" />
            <mxPoint x="234" y="444.5" as="targetPoint" />
            <Array as="points">
              <mxPoint x="349" y="444.5" />
            </Array>
          </mxGeometry>
        </mxCell>
        <mxCell id="UQ7txg1qopWhp1Ey1IJB-61" value="Return Hardware Status" style="edgeLabel;html=1;align=center;verticalAlign=middle;resizable=0;points=[];" connectable="0" vertex="1" parent="UQ7txg1qopWhp1Ey1IJB-57">
          <mxGeometry x="0.3227" y="-1" relative="1" as="geometry">
            <mxPoint x="24" y="-8" as="offset" />
          </mxGeometry>
        </mxCell>
        <mxCell id="UQ7txg1qopWhp1Ey1IJB-68" style="edgeStyle=elbowEdgeStyle;rounded=0;orthogonalLoop=1;jettySize=auto;html=1;elbow=vertical;curved=0;" edge="1" parent="1" target="UQ7txg1qopWhp1Ey1IJB-12">
          <mxGeometry relative="1" as="geometry">
            <mxPoint x="384" y="489.83333333333337" as="sourcePoint" />
            <mxPoint x="619" y="489.5" as="targetPoint" />
          </mxGeometry>
        </mxCell>
        <mxCell id="UQ7txg1qopWhp1Ey1IJB-69" value="Request Visibility and Mobility data" style="edgeLabel;html=1;align=center;verticalAlign=middle;resizable=0;points=[];" connectable="0" vertex="1" parent="UQ7txg1qopWhp1Ey1IJB-68">
          <mxGeometry x="-0.464" y="-2" relative="1" as="geometry">
            <mxPoint x="45" y="-10" as="offset" />
          </mxGeometry>
        </mxCell>
        <mxCell id="UQ7txg1qopWhp1Ey1IJB-70" style="edgeStyle=elbowEdgeStyle;rounded=0;orthogonalLoop=1;jettySize=auto;html=1;elbow=vertical;curved=0;" edge="1" parent="1">
          <mxGeometry relative="1" as="geometry">
            <mxPoint x="634" y="499.6111111111111" as="sourcePoint" />
            <mxPoint x="734" y="499.6111111111111" as="targetPoint" />
          </mxGeometry>
        </mxCell>
        <mxCell id="UQ7txg1qopWhp1Ey1IJB-71" value="Request Data" style="edgeLabel;html=1;align=center;verticalAlign=middle;resizable=0;points=[];" connectable="0" vertex="1" parent="UQ7txg1qopWhp1Ey1IJB-70">
          <mxGeometry x="-0.2715" relative="1" as="geometry">
            <mxPoint x="11" y="-9" as="offset" />
          </mxGeometry>
        </mxCell>
        <mxCell id="UQ7txg1qopWhp1Ey1IJB-72" style="edgeStyle=elbowEdgeStyle;rounded=0;orthogonalLoop=1;jettySize=auto;html=1;elbow=horizontal;curved=0;endArrow=open;endFill=0;" edge="1" parent="1">
          <mxGeometry relative="1" as="geometry">
            <mxPoint x="734" y="516.3333333333334" as="sourcePoint" />
            <mxPoint x="634" y="516.3333333333334" as="targetPoint" />
          </mxGeometry>
        </mxCell>
        <mxCell id="UQ7txg1qopWhp1Ey1IJB-73" value="Return Data" style="edgeLabel;html=1;align=center;verticalAlign=middle;resizable=0;points=[];" connectable="0" vertex="1" parent="UQ7txg1qopWhp1Ey1IJB-72">
          <mxGeometry x="0.22" y="1" relative="1" as="geometry">
            <mxPoint x="9" y="-9" as="offset" />
          </mxGeometry>
        </mxCell>
        <mxCell id="UQ7txg1qopWhp1Ey1IJB-74" style="edgeStyle=elbowEdgeStyle;rounded=0;orthogonalLoop=1;jettySize=auto;html=1;elbow=vertical;curved=0;" edge="1" parent="1" source="UQ7txg1qopWhp1Ey1IJB-12">
          <mxGeometry relative="1" as="geometry">
            <mxPoint x="619" y="521.5" as="sourcePoint" />
            <mxPoint x="383" y="521.8333333333334" as="targetPoint" />
          </mxGeometry>
        </mxCell>
        <mxCell id="UQ7txg1qopWhp1Ey1IJB-75" value="Return Visibility and Mobility Data" style="edgeLabel;html=1;align=center;verticalAlign=middle;resizable=0;points=[];" connectable="0" vertex="1" parent="UQ7txg1qopWhp1Ey1IJB-74">
          <mxGeometry x="0.328" relative="1" as="geometry">
            <mxPoint x="34" y="-9" as="offset" />
          </mxGeometry>
        </mxCell>
        <mxCell id="UQ7txg1qopWhp1Ey1IJB-76" style="edgeStyle=elbowEdgeStyle;rounded=0;orthogonalLoop=1;jettySize=auto;html=1;elbow=vertical;curved=0;endArrow=open;endFill=0;" edge="1" parent="1">
          <mxGeometry relative="1" as="geometry">
            <mxPoint x="374" y="534.6666666666667" as="sourcePoint" />
            <mxPoint x="234" y="534.6666666666667" as="targetPoint" />
          </mxGeometry>
        </mxCell>
        <mxCell id="UQ7txg1qopWhp1Ey1IJB-77" value="Return Sensor Data" style="edgeLabel;html=1;align=center;verticalAlign=middle;resizable=0;points=[];" connectable="0" vertex="1" parent="UQ7txg1qopWhp1Ey1IJB-76">
          <mxGeometry x="0.1825" y="-1" relative="1" as="geometry">
            <mxPoint x="12" y="-8" as="offset" />
          </mxGeometry>
        </mxCell>
        <mxCell id="UQ7txg1qopWhp1Ey1IJB-81" style="edgeStyle=elbowEdgeStyle;rounded=0;orthogonalLoop=1;jettySize=auto;html=1;elbow=vertical;curved=0;" edge="1" parent="1">
          <mxGeometry relative="1" as="geometry">
            <mxPoint x="234" y="482.29999999999995" as="sourcePoint" />
            <mxPoint x="373.5000000000001" y="482.15103448275863" as="targetPoint" />
          </mxGeometry>
        </mxCell>
        <mxCell id="UQ7txg1qopWhp1Ey1IJB-82" value="Request Visibility&amp;nbsp;&lt;br&gt;Mobility Status" style="edgeLabel;html=1;align=center;verticalAlign=middle;resizable=0;points=[];" connectable="0" vertex="1" parent="UQ7txg1qopWhp1Ey1IJB-81">
          <mxGeometry x="-0.261" relative="1" as="geometry">
            <mxPoint x="13" y="-16" as="offset" />
          </mxGeometry>
        </mxCell>
        <mxCell id="UQ7txg1qopWhp1Ey1IJB-84" style="edgeStyle=elbowEdgeStyle;rounded=0;orthogonalLoop=1;jettySize=auto;html=1;elbow=vertical;curved=0;" edge="1" parent="1">
          <mxGeometry relative="1" as="geometry">
            <mxPoint x="234" y="561.6428571428571" as="sourcePoint" />
            <mxPoint x="374" y="561.6428571428571" as="targetPoint" />
          </mxGeometry>
        </mxCell>
        <mxCell id="UQ7txg1qopWhp1Ey1IJB-85" value="Request Weather Status" style="edgeLabel;html=1;align=center;verticalAlign=middle;resizable=0;points=[];" connectable="0" vertex="1" parent="UQ7txg1qopWhp1Ey1IJB-84">
          <mxGeometry x="-0.369" y="2" relative="1" as="geometry">
            <mxPoint x="23" y="-6" as="offset" />
          </mxGeometry>
        </mxCell>
        <mxCell id="UQ7txg1qopWhp1Ey1IJB-86" style="edgeStyle=elbowEdgeStyle;rounded=0;orthogonalLoop=1;jettySize=auto;html=1;elbow=vertical;curved=0;" edge="1" parent="1" target="UQ7txg1qopWhp1Ey1IJB-12">
          <mxGeometry relative="1" as="geometry">
            <mxPoint x="384" y="559.6428571428571" as="sourcePoint" />
            <mxPoint x="619" y="559.5" as="targetPoint" />
            <Array as="points">
              <mxPoint x="629" y="559.5" />
            </Array>
          </mxGeometry>
        </mxCell>
        <mxCell id="UQ7txg1qopWhp1Ey1IJB-87" value="Request Weather Data" style="edgeLabel;html=1;align=center;verticalAlign=middle;resizable=0;points=[];" connectable="0" vertex="1" parent="UQ7txg1qopWhp1Ey1IJB-86">
          <mxGeometry x="-0.5051" y="2" relative="1" as="geometry">
            <mxPoint x="10" y="-8" as="offset" />
          </mxGeometry>
        </mxCell>
        <mxCell id="UQ7txg1qopWhp1Ey1IJB-91" value="" style="edgeStyle=elbowEdgeStyle;rounded=0;orthogonalLoop=1;jettySize=auto;html=1;elbow=vertical;curved=0;" edge="1" parent="1">
          <mxGeometry relative="1" as="geometry">
            <mxPoint x="634" y="562.7857142857143" as="sourcePoint" />
            <mxPoint x="734" y="562.7857142857143" as="targetPoint" />
          </mxGeometry>
        </mxCell>
        <mxCell id="UQ7txg1qopWhp1Ey1IJB-92" value="Request Data" style="edgeLabel;html=1;align=center;verticalAlign=middle;resizable=0;points=[];" connectable="0" vertex="1" parent="UQ7txg1qopWhp1Ey1IJB-91">
          <mxGeometry x="-0.2974" y="1" relative="1" as="geometry">
            <mxPoint x="14" y="-7" as="offset" />
          </mxGeometry>
        </mxCell>
        <mxCell id="UQ7txg1qopWhp1Ey1IJB-93" style="edgeStyle=elbowEdgeStyle;rounded=0;orthogonalLoop=1;jettySize=auto;html=1;elbow=vertical;curved=0;" edge="1" parent="1" source="UQ7txg1qopWhp1Ey1IJB-6" target="UQ7txg1qopWhp1Ey1IJB-2">
          <mxGeometry relative="1" as="geometry">
            <mxPoint x="534" y="369.5" as="sourcePoint" />
            <mxPoint x="729" y="369.5" as="targetPoint" />
            <Array as="points">
              <mxPoint x="729" y="369.5" />
            </Array>
          </mxGeometry>
        </mxCell>
        <mxCell id="UQ7txg1qopWhp1Ey1IJB-94" value="Send Data and Update&amp;nbsp;" style="edgeLabel;html=1;align=center;verticalAlign=middle;resizable=0;points=[];" connectable="0" vertex="1" parent="UQ7txg1qopWhp1Ey1IJB-93">
          <mxGeometry x="-0.384" y="1" relative="1" as="geometry">
            <mxPoint y="-8" as="offset" />
          </mxGeometry>
        </mxCell>
        <mxCell id="UQ7txg1qopWhp1Ey1IJB-95" style="edgeStyle=elbowEdgeStyle;rounded=0;orthogonalLoop=1;jettySize=auto;html=1;elbow=vertical;curved=0;endArrow=open;endFill=0;" edge="1" parent="1" source="UQ7txg1qopWhp1Ey1IJB-12" target="UQ7txg1qopWhp1Ey1IJB-2">
          <mxGeometry relative="1" as="geometry">
            <mxPoint x="669" y="555.5" as="targetPoint" />
            <Array as="points">
              <mxPoint x="699" y="473.5" />
              <mxPoint x="739" y="533.5" />
            </Array>
          </mxGeometry>
        </mxCell>
        <mxCell id="UQ7txg1qopWhp1Ey1IJB-96" value="Send data&amp;nbsp;&lt;br&gt;And update" style="edgeLabel;html=1;align=center;verticalAlign=middle;resizable=0;points=[];" connectable="0" vertex="1" parent="UQ7txg1qopWhp1Ey1IJB-95">
          <mxGeometry x="-0.536" relative="1" as="geometry">
            <mxPoint x="27" y="-16" as="offset" />
          </mxGeometry>
        </mxCell>
        <mxCell id="UQ7txg1qopWhp1Ey1IJB-97" style="edgeStyle=elbowEdgeStyle;rounded=0;orthogonalLoop=1;jettySize=auto;html=1;elbow=vertical;curved=0;endArrow=open;endFill=0;" edge="1" parent="1">
          <mxGeometry relative="1" as="geometry">
            <mxPoint x="734" y="582.5" as="sourcePoint" />
            <mxPoint x="634" y="582.5" as="targetPoint" />
          </mxGeometry>
        </mxCell>
        <mxCell id="UQ7txg1qopWhp1Ey1IJB-98" value="Return Data" style="edgeLabel;html=1;align=center;verticalAlign=middle;resizable=0;points=[];" connectable="0" vertex="1" parent="UQ7txg1qopWhp1Ey1IJB-97">
          <mxGeometry x="0.2496" y="1" relative="1" as="geometry">
            <mxPoint x="12" y="-9" as="offset" />
          </mxGeometry>
        </mxCell>
        <mxCell id="UQ7txg1qopWhp1Ey1IJB-106" style="edgeStyle=elbowEdgeStyle;rounded=0;orthogonalLoop=1;jettySize=auto;html=1;elbow=vertical;curved=0;endArrow=open;endFill=0;" edge="1" parent="1">
          <mxGeometry relative="1" as="geometry">
            <mxPoint x="624" y="590.3333333333334" as="sourcePoint" />
            <mxPoint x="384" y="590.3333333333334" as="targetPoint" />
          </mxGeometry>
        </mxCell>
        <mxCell id="UQ7txg1qopWhp1Ey1IJB-107" value="Return Weather Data" style="edgeLabel;html=1;align=center;verticalAlign=middle;resizable=0;points=[];" connectable="0" vertex="1" parent="UQ7txg1qopWhp1Ey1IJB-106">
          <mxGeometry x="0.5458" y="-1" relative="1" as="geometry">
            <mxPoint x="17" y="-7" as="offset" />
          </mxGeometry>
        </mxCell>
        <mxCell id="UQ7txg1qopWhp1Ey1IJB-108" style="edgeStyle=elbowEdgeStyle;rounded=0;orthogonalLoop=1;jettySize=auto;html=1;elbow=vertical;curved=0;endArrow=open;endFill=0;" edge="1" parent="1">
          <mxGeometry relative="1" as="geometry">
            <mxPoint x="374" y="595.6034482758621" as="sourcePoint" />
            <mxPoint x="234" y="595.6034482758621" as="targetPoint" />
          </mxGeometry>
        </mxCell>
        <mxCell id="UQ7txg1qopWhp1Ey1IJB-109" value="Return Weather Data" style="edgeLabel;html=1;align=center;verticalAlign=middle;resizable=0;points=[];" connectable="0" vertex="1" parent="UQ7txg1qopWhp1Ey1IJB-108">
          <mxGeometry x="0.4985" y="1" relative="1" as="geometry">
            <mxPoint x="34" y="-9" as="offset" />
          </mxGeometry>
        </mxCell>
        <mxCell id="UQ7txg1qopWhp1Ey1IJB-110" style="edgeStyle=elbowEdgeStyle;rounded=0;orthogonalLoop=1;jettySize=auto;html=1;elbow=horizontal;curved=0;endArrow=open;endFill=0;" edge="1" parent="1" source="aM9ryv3xv72pqoxQDRHE-6" target="aM9ryv3xv72pqoxQDRHE-2">
          <mxGeometry relative="1" as="geometry">
            <Array as="points">
              <mxPoint x="169" y="603.5" />
            </Array>
          </mxGeometry>
        </mxCell>
        <mxCell id="UQ7txg1qopWhp1Ey1IJB-111" value="Give Mission Status" style="edgeLabel;html=1;align=center;verticalAlign=middle;resizable=0;points=[];" connectable="0" vertex="1" parent="UQ7txg1qopWhp1Ey1IJB-110">
          <mxGeometry x="0.2545" relative="1" as="geometry">
            <mxPoint x="17" y="-8" as="offset" />
          </mxGeometry>
        </mxCell>
        <mxCell id="UQ7txg1qopWhp1Ey1IJB-118" value="" style="shape=card;whiteSpace=wrap;html=1;flipV=1;rotation=-90;size=19;textDirection=ltr;" vertex="1" parent="1">
          <mxGeometry x="63.5" y="19" width="50" height="109" as="geometry" />
        </mxCell>
        <mxCell id="UQ7txg1qopWhp1Ey1IJB-119" value="Sequence Diagram&lt;br&gt;Mission Status" style="text;html=1;align=center;verticalAlign=middle;resizable=0;points=[];autosize=1;strokeColor=none;fillColor=none;" vertex="1" parent="1">
          <mxGeometry x="27" y="47.5" width="121" height="41" as="geometry" />
        </mxCell>
      </root>
    </mxGraphModel>
  </diagram>
</mxfile>
